Coordinates
version=1
nRows=16
nColumns=42
inDegrees=yes

Units are S.I. units (second, meters, Newtons, ...)
If the header above contains a line with 'inDegrees', this indicates whether rotational values are in degrees (yes) or radians (no).

endheader
time	pelvis_tilt	pelvis_list	pelvis_rotation	pelvis_tx	pelvis_ty	pelvis_tz	hip_flexion_r	hip_adduction_r	hip_rotation_r	knee_angle_r	knee_adduction_r	knee_angle_r_beta	ankle_angle_r	subtalar_angle_r	mtp_angle_r	hip_flexion_l	hip_adduction_l	hip_rotation_l	knee_angle_l	knee_adduction_l	knee_angle_l_beta	ankle_angle_l	subtalar_angle_l	mtp_angle_l	lumbar_extension	lumbar_bending	lumbar_rotation	arm_flex_r	arm_add_r	arm_rot_r	elbow_flex_r	pro_sup_r	wrist_flex_r	wrist_dev_r	arm_flex_l	arm_add_l	arm_rot_l	elbow_flex_l	pro_sup_l	wrist_flex_l	wrist_dev_l
      0.33000000	     12.99820309	     -1.86960692	      0.71235594	     -2.06979182	      0.86041668	      0.10713251	    -29.69202459	      4.27226149	    -23.82866629	     13.64795613	     -3.75075356	      0.23820177	     15.87072729	     35.03487807	     -9.30266388	     15.33688574	     -2.53086764	    -23.56266811	     16.85443618	     -1.54258508	      0.29416540	     10.86845941	     13.91547098	     -9.30266388	    -25.41729162	     -0.76381782	      2.16501261	     -0.50103483	     -3.28171530	    -15.71710074	     46.90728755	     90.00000001	      0.00000000	      0.00000000	     -2.86741475	     -3.68552225	    -23.48781740	     33.80621748	     90.00000001	      0.00000000	      0.00000000
      0.34000000	     12.60695075	     -1.68676580	      0.51481543	     -2.05714766	      0.85928370	      0.10633879	    -29.73204447	      3.92571218	    -23.65748230	     14.32738334	     -4.10472364	      0.25006001	     15.64496926	     34.79233511	     -9.28987490	     15.60164137	     -2.01070791	    -22.97110633	     17.69879859	     -1.99675608	      0.30890231	     10.74383291	     13.72536405	     -9.28987490	    -24.84059509	     -1.04141721	      2.40704861	     -0.99641856	     -3.28556554	    -15.76262004	     46.66035649	     90.00000001	      0.00000000	      0.00000000	     -3.06468635	     -3.72111751	    -23.51300784	     33.76711639	     90.00000001	      0.00000000	      0.00000000
      0.35000000	     12.25169329	     -1.39459827	      0.31597099	     -2.04439730	      0.85829875	      0.10549608	    -29.75914043	      3.43494934	    -23.56369572	     15.10070365	     -4.40576772	      0.26355700	     15.27640586	     34.48851190	     -9.27722010	     15.84972406	     -1.40494588	    -22.47735685	     18.75310450	     -2.52140565	      0.32730342	     10.59539184	     13.32441896	     -9.27722010	    -24.31357161	     -1.44946448	      2.67102664	     -1.49600756	     -3.28429110	    -15.82549485	     46.34021671	     90.00000001	      0.00000000	      0.00000000	     -3.22728815	     -3.75888326	    -23.53784409	     33.71809573	     90.00000001	      0.00000000	      0.00000000
      0.36000000	     11.96319753	     -0.78219055	      0.09260820	     -2.03155802	      0.85758085	      0.10447315	    -29.75616956	      2.39964924	    -24.21681735	     16.17880604	     -4.48775207	      0.28237343	     13.65123898	     34.07665087	     -9.12901718	     15.94093506	     -0.38862813	    -21.29247381	     19.84428690	     -2.78938501	      0.34634814	      9.51368446	      8.22571377	     -9.12901718	    -23.83416156	     -2.20602262	      2.78382406	     -1.37236543	     -3.01767059	    -16.78475516	     44.73381214	     90.00000001	      0.00000000	      0.00000000	     -3.08610676	     -3.81517694	    -23.90872351	     33.22926549	     90.00000001	      0.00000000	      0.00000000
      0.37000000	     11.70954962	     -0.29995196	     -0.11053527	     -2.01865486	      0.85706083	      0.10353903	    -29.76138708	      1.69902072	    -24.12234448	     17.16182570	     -4.79920643	      0.29953036	     12.53984397	     33.20182979	     -9.07356956	     16.11424799	      0.32278509	    -21.00035794	     21.15193991	     -3.27807518	      0.36917099	      9.12888423	      6.98694635	     -9.07356956	    -23.41682469	     -2.82274203	      2.97285181	     -1.75179981	     -2.95851692	    -17.05312480	     44.22536455	     90.00000001	      0.00000000	      0.00000000	     -3.17626061	     -3.85414650	    -24.03315332	     33.22775618	     90.00000001	      0.00000000	      0.00000000
      0.38000000	     11.46203535	      0.21220792	     -0.26688911	     -2.00581131	      0.85688635	      0.10249592	    -29.76613960	      1.02583806	    -23.48910615	     18.11453114	     -4.96805237	      0.31615821	     11.06455302	     31.29077839	     -8.94453433	     16.16184493	      1.09822883	    -19.80522877	     22.37942744	     -3.40832515	      0.39059469	      8.47280012	      4.22075421	     -8.94453433	    -23.02400941	     -3.46098393	      3.03154189	     -1.89769096	     -2.75744238	    -17.76496322	     43.10934263	     90.00000001	      0.00000000	      0.00000000	     -3.24622209	     -3.88390737	    -24.33119976	     33.12905860	     90.00000001	      0.00000000	      0.00000000
      0.39000000	     11.36382505	      0.73435725	     -0.36296026	     -1.99295946	      0.85690967	      0.10143651	    -29.76130627	      0.30646090	    -23.31673016	     19.33521578	     -5.18558136	      0.33746318	     10.05963894	     30.64757324	     -8.93126663	     16.16645607	      1.74097411	    -19.37315350	     23.85081100	     -3.66272811	      0.41627518	      8.49625806	      3.72432731	     -8.93126663	    -22.81762979	     -4.09749799	      3.08058084	     -2.37610907	     -2.70668299	    -17.87214264	     42.70313120	     90.00000001	      0.00000000	      0.00000000	     -3.29379573	     -3.93751040	    -24.37975823	     33.11453416	     90.00000001	      0.00000000	      0.00000000
      0.40000000	     11.22133778	      1.21649770	     -0.37979295	     -1.98029539	      0.85739650	      0.10034748	    -29.75754824	     -0.06567567	    -21.57171948	     20.38739187	     -5.36313827	      0.35582711	      7.18302154	     25.73905871	     -8.82492556	     16.02288511	      2.43228039	    -17.85328299	     25.05288408	     -3.45287927	      0.43725531	      8.02623735	      0.29361902	     -8.82492556	    -22.58561481	     -4.68038771	      2.97934762	     -2.32253425	     -2.51540688	    -18.58509473	     41.26593227	     90.00000001	      0.00000000	      0.00000000	     -3.31330214	     -3.98948799	    -24.62868999	     33.18572017	     90.00000001	      0.00000000	      0.00000000
      0.41000000	     11.24094116	      1.71143355	     -0.39895816	     -1.96771686	      0.85818320	      0.09929309	    -29.74590959	     -0.50712226	    -19.93027483	     21.76275813	     -5.46338832	      0.37983178	      4.97569128	     21.51384798	     -8.71222351	     15.64993088	      3.02044639	    -16.65982242	     26.22070002	     -3.09258479	      0.45763755	      8.00455075	     -1.91438973	     -8.71222351	    -22.58404423	     -5.27482436	      2.85419931	     -2.46020611	     -2.37030253	    -19.18515901	     40.46814346	     90.00000001	      0.00000000	      0.00000000	     -3.26671386	     -4.04884088	    -24.79666451	     33.19022439	     90.00000001	      0.00000000	      0.00000000
      0.42000000	     11.38669265	      2.15355586	     -0.39486937	     -1.95512520	      0.85922211	      0.09814020	    -29.72041339	     -0.94923455	    -18.57853435	     23.33963806	     -5.55188941	      0.40735353	      2.13121729	     17.94371575	     -8.64291300	     15.01172666	      3.59456089	    -15.55085329	     27.15200610	     -2.78834393	      0.47389191	      8.35335530	     -3.26771087	     -8.64291300	    -22.71233066	     -5.76990652	      2.72650056	     -2.66021777	     -2.26781694	    -19.49072691	     39.66532000	     90.00000001	      0.00000000	      0.00000000	     -3.26931904	     -4.07820643	    -24.85974080	     33.30647272	     90.00000001	      0.00000000	      0.00000000
      0.43000000	     11.62342044	      2.60023900	     -0.40586370	     -1.94269058	      0.86055018	      0.09696522	    -29.69374951	     -1.35116677	    -16.46225066	     25.12370907	     -5.40659258	      0.43849144	     -0.49290579	     12.92302244	     -8.56186128	     14.12054546	      4.18335478	    -14.58896287	     27.78968778	     -2.45232349	      0.48502155	      8.78979584	     -4.75172293	     -8.56186128	    -22.97160457	     -6.26298369	      2.60383407	     -2.84775431	     -2.21755303	    -19.90897103	     38.87932703	     90.00000001	      0.00000000	      0.00000000	     -3.18739048	     -4.09824588	    -24.86691745	     33.45215584	     90.00000001	      0.00000000	      0.00000000
      0.44000000	     11.99888096	      3.05174027	     -0.45551347	     -1.93031769	      0.86209295	      0.09579667	    -29.63809836	     -1.83445267	    -14.59036886	     27.16125479	     -5.21871008	      0.47405332	     -3.12299859	      8.72934190	     -8.48906950	     12.92040330	      4.74218247	    -14.06303412	     28.11403604	     -2.16042811	      0.49068249	      9.47581243	     -5.35631112	     -8.48906950	    -23.39250101	     -6.75317772	      2.44985996	     -3.03391511	     -2.18946599	    -20.26493871	     38.25309272	     90.00000001	      0.00000000	      0.00000000	     -3.11489533	     -4.12051686	    -24.82171630	     33.61608962	     90.00000001	      0.00000000	      0.00000000
      0.45000000	     12.52925180	      3.66950939	     -0.59597332	     -1.91803425	      0.86374214	      0.09453968	    -29.50847544	     -2.65338159	    -13.62237650	     29.52566893	     -5.19622275	      0.51532014	     -4.78270601	      7.35396623	     -8.47166522	     11.38512521	      5.51023348	    -14.11300513	     28.04062703	     -2.06778040	      0.48940127	     10.40934998	     -5.37635841	     -8.47166522	    -23.99250159	     -7.40626779	      2.32639611	     -3.36217963	     -2.21821854	    -20.38309086	     37.90348162	     90.00000001	      0.00000000	      0.00000000	     -2.92244167	     -4.12165927	    -24.77917156	     33.76370142	     90.00000001	      0.00000000	      0.00000000
      0.46000000	     13.04295275	      3.90785183	     -0.67935105	     -1.90601127	      0.86564721	      0.09348468	    -29.32818048	     -2.89887643	    -10.95821010	     31.93968888	     -4.58365569	      0.55745273	     -7.50001746	      1.32210655	     -8.40258749	      9.80348497	      5.78997146	    -14.45387862	     27.85175337	     -2.02849062	      0.48610480	     11.35751366	     -4.33628997	     -8.40258749	    -24.59970797	     -7.64278364	      2.11908596	     -3.42293166	     -2.24637367	    -20.71567430	     37.24974217	     90.00000001	      0.00000000	      0.00000000	     -2.90508228	     -4.11263472	    -24.56481902	     34.09802363	     90.00000001	      0.00000000	      0.00000000
      0.47000000	     13.58926918	      4.35706962	     -0.80602435	     -1.89422064	      0.86746220	      0.09241794	    -28.82850620	     -3.56328331	    -10.12075953	     34.77419276	     -4.46769450	      0.60692416	     -8.50168447	     -0.56381416	     -8.36608014	      8.05165396	      6.35646954	    -14.95892356	     27.30518686	     -2.07863581	      0.47656541	     12.17788650	     -3.26443463	     -8.36608014	    -25.26419849	     -8.11525238	      1.86533810	     -3.63978858	     -2.25841982	    -20.82434335	     36.95293506	     90.00000001	      0.00000000	      0.00000000	     -2.79176373	     -4.15686675	    -24.41303292	     34.24323300	     90.00000001	      0.00000000	      0.00000000
      0.48000000	     13.91776611	      4.54343109	     -0.93831180	     -1.88290757	      0.86916735	      0.09137932	    -27.87454474	     -3.92675130	     -8.76424561	     37.81306736	     -4.21786499	      0.65996253	     -9.45591059	     -3.97318182	     -8.30073445	      6.62734241	      6.54350981	    -16.20678401	     26.85477789	     -2.29887959	      0.46870429	     13.34326770	     -1.00978481	     -8.30073445	    -25.74811221	     -8.27028912	      1.75311486	     -3.73321277	     -2.34177774	    -21.00648522	     36.44247258	     90.00000001	      0.00000000	      0.00000000	     -2.53372809	     -4.11075036	    -24.09604071	     34.50492020	     90.00000001	      0.00000000	      0.00000000
